<svg version="1.1" xmlns="http://www.w3.org/2000/svg" xmlns:xlink="http://www.w3.org/1999/xlink" width="68.2" height="24.83334" viewBox="0,0,68.2,24.83334"><g transform="translate(-241.41403,-168.03409)"><g data-paper-data="{&quot;isPaintingLayer&quot;:true}" fill-rule="nonzero" stroke="none" stroke-linecap="butt" stroke-linejoin="miter" stroke-miterlimit="10" stroke-dasharray="" stroke-dashoffset="0" style="mix-blend-mode: normal"><path d="M273.78907,185.56935v-0.8555h-0.85547v-9.4277h0.85547v-0.8555h4.2832v0.8555h0.86133v1.7168h-1.7168v-0.8613h-2.57226v7.7168h2.57226v-0.8555h1.7168v1.7109h-0.86133v0.8555zM279.78907,185.56935v-11.1387h1.71094v11.1387zM283.2109,185.56935v-0.8555h-0.8554v-6.8554h1.7109v6h2.5723v-6h1.7168v6.8554h-0.8614v0.8555zM293.49411,183.85845v-4.2891h-2.5722v4.2891zM289.2109,185.56935v-11.1387h1.711v3.4278h3.4277v0.8554h0.8613v6h-0.8613v0.8555zM296.0664,185.56935v-1.7109h4.2832v-1.7168h-3.4277v-0.8555h-0.8555v-2.5723h0.8555v-0.8554h5.1445v1.7109h-4.289v0.8613h3.4277v0.8555h0.8613v3.4277h-0.8613v0.8555z" fill="#235955" stroke-width="1"/><path d="M250.02212,183.85844v-4.2891h-2.57226v4.2891zM246.5944,185.56934v-0.8555h-0.85547v-5.99997h0.85547v-0.85547h4.2832v0.85547h0.86133v5.99997h-0.86133v0.8555zM254.30533,185.56934v-6h-1.71094v-1.71094h1.71094v-2.57226h0.85547v-0.85547h3.43362v1.71094h-2.5723v1.71679h2.5723v1.71094h-2.5723v6z" fill="#000000" stroke-width="1"/><path d="M241.41403,192.86743v-24.83334h68.2v24.83334z" fill="none" stroke-width="0"/></g></g></svg>