<svg version="1.1" xmlns="http://www.w3.org/2000/svg" xmlns:xlink="http://www.w3.org/1999/xlink" width="86.2383" height="11.1387" viewBox="0,0,86.2383,11.1387"><g transform="translate(-196.88085,-174.43065)"><g data-paper-data="{&quot;isPaintingLayer&quot;:true}" fill="#ff0000" fill-rule="nonzero" stroke="none" stroke-width="1" stroke-linecap="butt" stroke-linejoin="miter" stroke-miterlimit="10" stroke-dasharray="" stroke-dashoffset="0" style="mix-blend-mode: normal"><path d="M196.88085,185.56935v-11.1387h6v1.711h-4.28906v2.5722h3.42773v1.7168h-3.42773v5.1387zM208.01955,183.85845v-4.2891h-2.57229v4.2891zM204.59179,185.56935v-0.8555h-0.85547v-6h0.85547v-0.8554h4.28316v0.8554h0.8614v6h-0.8614v0.8555zM211.44725,185.56935v-0.8555h-0.8555v-6.8554h1.711v6h2.5722v-6h1.7168v6.8554h-0.8613v0.8555zM217.44725,185.56935v-6.8555h0.8555v-0.8554h4.2832v0.8554h0.8613v1.7168h-1.7168v-0.8613h-2.5723v6zM233.62495,183.85845v-4.2891h-2.5722v4.2891zM230.19725,185.56935v-0.8555h-0.8555v-6h0.8555v-0.8554h4.2832v0.8554h0.8613v6h-0.8613v0.8555zM237.90815,185.56935v-6h-1.7109v-1.7109h1.7109v-2.5723h0.8555v-0.8555h3.4336v1.711h-2.5723v1.7168h2.5723v1.7109h-2.5723v6zM252.37495,183.85845v-1.7168h-2.5722v1.7168zM248.94725,185.56935v-0.8555h-0.8555v-3.4277h0.8555v-0.8555h3.4277v-0.8613h-4.2832v-1.7109h5.1387v0.8554h0.8613v5.1446h0.8555v1.7109zM260.84175,185.56935v-11.1387h1.711v3.4278h0.8554v-0.8555h0.8614v-0.8613h0.8554v-1.711h1.7168v2.5723h-0.8613v0.8555h-0.8555v0.8554h-0.8554v0.8555h0.8554v0.8613h0.8555v0.8555h0.8613v4.2832h-1.7168v-3.4277h-0.8554v-0.8555h-0.8614v-0.8555h-0.8554v5.1387zM267.69725,185.56935v-7.7109h1.7109v7.7109zM267.69725,176.14165v-1.711h1.7109v1.711zM270.26365,185.56935v-6.8555h0.8555v-0.8554h4.2832v0.8554h0.8613v6.8555h-1.7168v-6h-2.5722v6zM281.40235,183.85845v-4.2891h-2.5723v4.2891zM277.97465,185.56935v-0.8555h-0.8555v-6h0.8555v-0.8554h3.4277v-3.4278h1.7168v11.1387z"/></g></g></svg>