<svg version="1.1" xmlns="http://www.w3.org/2000/svg" xmlns:xlink="http://www.w3.org/1999/xlink" width="116" height="24.83334" viewBox="0,0,116,24.83334"><g transform="translate(-231.21402,-168.03409)"><g data-paper-data="{&quot;isPaintingLayer&quot;:true}" fill-rule="nonzero" stroke="none" stroke-linecap="butt" stroke-linejoin="miter" stroke-miterlimit="10" stroke-dasharray="" stroke-dashoffset="0" style="mix-blend-mode: normal"><path d="M256.71681,183.85845v-7.7168h-2.57226v7.7168zM252.43361,185.56935v-11.1387h5.13867v0.8555h0.86133v9.4277h-0.86133v0.8555zM259.28908,185.56935v-7.7109h1.71094v7.7109zM259.28908,176.14165v-1.711h1.71094v1.711zM266.13871,183.85845v-1.7168h-2.5723v1.7168zM262.71091,185.56935v-0.8555h-0.8554v-3.4277h0.8554v-0.8555h3.4278v-0.8613h-4.2832v-1.7109h5.1386v0.8554h0.8614v5.1446h0.8554v1.7109zM269.5664,185.56935v-6.8555h0.8555v-0.8554h6.8555v0.8554h0.8554v6.8555h-1.7109v-6h-1.7168v3.4336h-1.711v-3.4336h-1.7167v6zM283.28321,183.85845v-4.2891h-2.5723v4.2891zM279.85551,185.56935v-0.8555h-0.8555v-6h0.8555v-0.8554h4.2832v0.8554h0.8613v6h-0.8613v0.8555zM285.85551,185.56935v-6.8555h0.8554v-0.8554h4.2832v0.8554h0.8614v6.8555h-1.7168v-6h-2.5723v6zM296.99411,183.85845v-4.2891h-2.5722v4.2891zM293.5664,185.56935v-0.8555h-0.8555v-6h0.8555v-0.8554h3.4277v-3.4278h1.7168v11.1387zM299.5664,185.56935v-1.7109h4.2832v-1.7168h-3.4277v-0.8555h-0.8555v-2.5723h0.8555v-0.8554h5.1445v1.7109h-4.289v0.8613h3.4277v0.8555h0.8613v3.4277h-0.8613v0.8555z" fill="#f06b3f" stroke-width="1"/><path d="M241.35546,183.85844v-4.2891h-2.57226v4.2891zM237.92773,185.56934v-0.8555h-0.85547v-5.99997h0.85547v-0.85547h4.2832v0.85547h0.86133v5.99997h-0.86133v0.8555zM245.63867,185.56934v-6h-1.71094v-1.71094h1.71094v-2.57226h0.85547v-0.85547h3.43362v1.71094h-2.5723v1.71679h2.5723v1.71094h-2.5723v6z" fill="#000000" stroke-width="1"/><path d="M231.21403,192.86743v-24.83334h116v24.83334z" fill="none" stroke-width="0"/></g></g></svg>