<svg version="1.1" xmlns="http://www.w3.org/2000/svg" xmlns:xlink="http://www.w3.org/1999/xlink" width="93.9492" height="11.139" viewBox="0,0,93.9492,11.139"><g transform="translate(-193.0254,-174.4305)"><g data-paper-data="{&quot;isPaintingLayer&quot;:true}" fill="#ff0000" fill-rule="nonzero" stroke="none" stroke-width="1" stroke-linecap="butt" stroke-linejoin="miter" stroke-miterlimit="10" stroke-dasharray="" stroke-dashoffset="0" style="mix-blend-mode: normal"><path d="M195.59181,185.5695v-9.428h-2.56641v-1.711h6.85547v1.711h-2.57227v9.428zM200.73634,185.5695v-11.139h1.71094v3.428h3.42772v0.856h0.8613v6.855h-1.7168v-6h-2.57222v6zM207.5918,185.5695v-6.855h0.8555v-0.856h4.2832v0.856h0.8613v1.716h-1.7168v-0.861h-2.5723v6zM218.7305,181.2865v-1.717h-2.5723v1.717zM215.3027,185.5695v-0.855h-0.8554v-6h0.8554v-0.856h4.2832v0.856h0.8614v4.289h-4.2891v0.855h4.2891v1.711zM225.5859,181.2865v-1.717h-2.5722v1.717zM222.1582,185.5695v-0.855h-0.8555v-6h0.8555v-0.856h4.2832v0.856h0.8613v4.289h-4.289v0.855h4.289v1.711zM237.4805,183.8585v-4.289h-2.5723v4.289zM234.0527,185.5695v-0.855h-0.8554v-6h0.8554v-0.856h4.2832v0.856h0.8614v6h-0.8614v0.855zM241.7637,185.5695v-6h-1.711v-1.711h1.711v-2.572h0.8555v-0.856h3.4335v1.711h-2.5722v1.717h2.5722v1.711h-2.5722v6zM256.2305,183.8585v-1.717h-2.5723v1.717zM252.8027,185.5695v-0.855h-0.8554v-3.428h0.8554v-0.856h3.4278v-0.861h-4.2832v-1.711h5.1386v0.856h0.8614v5.144h0.8554v1.711zM264.6973,185.5695v-11.139h1.7109v3.428h0.8555v-0.855h0.8613v-0.862h0.8555v-1.711h1.7168v2.573h-0.8614v0.855h-0.8554v0.856h-0.8555v0.855h0.8555v0.861h0.8554v0.856h0.8614v4.283h-1.7168v-3.428h-0.8555v-0.855h-0.8613v-0.856h-0.8555v5.139zM271.5527,185.5695v-7.711h1.711v7.711zM271.5527,176.1415v-1.711h1.711v1.711zM274.1192,185.5695v-6.855h0.8554v-0.856h4.2832v0.856h0.8614v6.855h-1.7168v-6h-2.5723v6zM285.2578,183.8585v-4.289h-2.5722v4.289zM281.8301,185.5695v-0.855h-0.8555v-6h0.8555v-0.856h3.4277v-3.428h1.7168v11.139z"/></g></g></svg>