<svg version="1.1" xmlns="http://www.w3.org/2000/svg" xmlns:xlink="http://www.w3.org/1999/xlink" width="85.582" height="14.5664" viewBox="0,0,85.582,14.5664"><g transform="translate(-197.209,-172.7168)"><g data-paper-data="{&quot;isPaintingLayer&quot;:true}" fill="#ff0000" fill-rule="nonzero" stroke="none" stroke-width="1" stroke-linecap="butt" stroke-linejoin="miter" stroke-miterlimit="10" stroke-dasharray="" stroke-dashoffset="0" style="mix-blend-mode: normal"><path d="M198.06447,183.8555v-0.8555h-0.85547v-1.7109h1.71094v0.8555h2.57226v-3.4278h-3.42773v-0.8613h-0.85547v-4.2832h0.85547v-0.8555h4.2832v0.8555h0.86133v1.7168h-1.7168v-0.8613h-2.57226v2.5722h3.42773v0.8555h0.86133v5.1445h-0.86133v0.8555zM206.63088,183.8555v-0.8555h-0.85547v-5.1445h-1.71094v-1.7109h1.71094v-3.4278h1.71679v3.4278h2.5723v1.7109h-2.5723v4.2891h2.5723v1.7109zM210.9199,183.8555v-6.8555h0.8555v-0.8554h4.2832v0.8554h0.8613v1.7168h-1.7168v-0.8613h-2.5722v6zM222.0586,182.1446v-1.7168h-2.5723v1.7168zM218.6309,183.8555v-0.8555h-0.8555v-3.4277h0.8555v-0.8555h3.4277v-0.8613h-4.2832v-1.7109h5.1387v0.8554h0.8613v5.1446h0.8555v1.7109zM225.4863,183.8555v-7.7109h1.711v7.7109zM225.4863,174.4278v-1.711h1.711v1.711zM232.336,182.1446v-4.2891h-2.5723v4.2891zM228.0528,187.2832v-1.7168h4.2832v-1.7109h-3.4278v-0.8555h-0.8554v-6h0.8554v-0.8554h4.2832v0.8554h0.8614v9.4219h-0.8614v0.8613zM234.9082,183.8555v-11.1387h1.711v3.4278h3.4277v0.8554h0.8613v6.8555h-1.7168v-6h-2.5722v6zM244.3301,183.8555v-0.8555h-0.8555v-5.1445h-1.7109v-1.7109h1.7109v-3.4278h1.7168v3.4278h2.5723v1.7109h-2.5723v4.2891h2.5723v1.7109zM253.6582,183.8555v-11.1387h6v1.711h-4.289v2.5722h3.4277v1.7168h-3.4277v5.1387zM260.5137,183.8555v-11.1387h1.7109v11.1387zM263.9356,183.8555v-0.8555h-0.8555v-6.8554h1.7109v6h2.5723v-6h1.7168v6.8554h-0.8613v0.8555zM269.9356,183.8555v-1.7109h4.2832v-1.7168h-3.4278v-0.8555h-0.8554v-2.5723h0.8554v-0.8554h5.1446v1.7109h-4.2891v0.8613h3.4277v0.8555h0.8614v3.4277h-0.8614v0.8555zM276.791,183.8555v-11.1387h1.711v3.4278h3.4277v0.8554h0.8613v6.8555h-1.7168v-6h-2.5722v6z"/></g></g></svg>