<svg version="1.1" xmlns="http://www.w3.org/2000/svg" xmlns:xlink="http://www.w3.org/1999/xlink" width="57.3047" height="11.1387" viewBox="0,0,57.3047,11.1387"><g transform="translate(-211.34765,-174.43065)"><g data-paper-data="{&quot;isPaintingLayer&quot;:true}" fill="#ff0000" fill-rule="nonzero" stroke="none" stroke-width="1" stroke-linecap="butt" stroke-linejoin="miter" stroke-miterlimit="10" stroke-dasharray="" stroke-dashoffset="0" style="mix-blend-mode: normal"><path d="M211.34765,185.56935v-11.1387h6v1.711h-4.28906v2.5722h3.42773v1.7168h-3.42773v5.1387zM219.05859,185.56935v-0.855h-0.85547v-6.8559h1.71094v5.9999h2.57229v-5.9999h1.7168v6.8559h-0.8614v0.855zM225.05855,185.56935v-11.1387h1.711v11.1387zM227.62495,185.56935v-11.1387h1.711v11.1387zM235.23045,185.56935v-11.1387h1.711v4.2832h2.5722v-4.2832h1.7168v11.1387h-1.7168v-5.1387h-2.5722v5.1387zM246.36915,183.85835v-4.289h-2.5723v4.289zM242.94145,185.56935v-0.855h-0.8555v-6.0005h0.8555v-0.8554h4.2832v0.8554h0.8613v6.0005h-0.8613v0.855zM249.79685,185.56935v-0.855h-0.8554v-6.8559h1.7109v5.9999h2.5723v-5.9999h1.7168v6.8559h-0.8614v0.855zM255.79685,185.56935v-1.711h4.2832v-1.7167h-3.4277v-0.8555h-0.8555v-2.5723h0.8555v-0.8554h5.1445v1.7109h-4.289v0.8613h3.4277v0.8555h0.8613v3.4282h-0.8613v0.855zM266.93555,181.28615v-1.7168h-2.5723v1.7168zM263.50785,185.56935v-0.855h-0.8555v-6.0005h0.8555v-0.8554h4.2832v0.8554h0.8613v4.2895h-4.2891v0.855h4.2891v1.711z"/></g></g></svg>