<svg version="1.1" xmlns="http://www.w3.org/2000/svg" xmlns:xlink="http://www.w3.org/1999/xlink" width="68.4492" height="11.1387" viewBox="0,0,68.4492,11.1387"><g transform="translate(-205.7754,-174.43065)"><g data-paper-data="{&quot;isPaintingLayer&quot;:true}" fill="#ff0000" fill-rule="nonzero" stroke="none" stroke-width="1" stroke-linecap="butt" stroke-linejoin="miter" stroke-miterlimit="10" stroke-dasharray="" stroke-dashoffset="0" style="mix-blend-mode: normal"><path d="M205.7754,185.56935v-11.1387h6v1.711h-4.28906v2.5722h3.42773v1.7168h-3.42773v5.1387zM212.63087,185.56935v-11.1387h1.71094v11.1387zM216.0527,185.56935v-0.8555h-0.85542v-6.8554h1.71092v6h2.5723v-6h1.7168v6.8554h-0.8614v0.8555zM222.0527,185.56935v-1.7109h4.2832v-1.7168h-3.4277v-0.8555h-0.8555v-2.5723h0.8555v-0.8554h5.1445v1.7109h-4.289v0.8613h3.4277v0.8555h0.8613v3.4277h-0.8613v0.8555zM228.9082,185.56935v-11.1387h1.711v3.4278h3.4277v0.8554h0.8613v6.8555h-1.7168v-6h-2.5722v6zM240.8027,185.56935v-11.1387h1.711v4.2832h2.5722v-4.2832h1.7168v11.1387h-1.7168v-5.1387h-2.5722v5.1387zM251.9414,183.85845v-4.2891h-2.5722v4.2891zM248.5137,185.56935v-0.8555h-0.8555v-6h0.8555v-0.8554h4.2832v0.8554h0.8613v6h-0.8613v0.8555zM255.3692,185.56935v-0.8555h-0.8555v-6.8554h1.7109v6h2.5723v-6h1.7168v6.8554h-0.8613v0.8555zM261.3692,185.56935v-1.7109h4.2832v-1.7168h-3.4278v-0.8555h-0.8554v-2.5723h0.8554v-0.8554h5.1446v1.7109h-4.2891v0.8613h3.4277v0.8555h0.8614v3.4277h-0.8614v0.8555zM272.5078,181.28615v-1.7168h-2.5722v1.7168zM269.0801,185.56935v-0.8555h-0.8555v-6h0.8555v-0.8554h4.2832v0.8554h0.8613v4.2891h-4.289v0.8555h4.289v1.7109z"/></g></g></svg>