<svg version="1.1" xmlns="http://www.w3.org/2000/svg" xmlns:xlink="http://www.w3.org/1999/xlink" width="25.99004" height="5.46256" viewBox="0,0,25.99004,5.46256"><g transform="translate(-226.65733,-177.41323)"><g data-paper-data="{&quot;isPaintingLayer&quot;:true}" fill="#ff0000" fill-rule="nonzero" stroke="none" stroke-width="1" stroke-linecap="butt" stroke-linejoin="miter" stroke-miterlimit="10" stroke-dasharray="" stroke-dashoffset="0" style="mix-blend-mode: normal"><path d="M228.26357,180.94876v-2.8939h-0.96462v2.8939zM226.65733,181.59036v-4.17713h1.92706v0.32081h0.32301v3.53549h-0.32301v0.32082zM229.54901,181.59036v-0.32082h-0.32081v-2.57087h0.64163v2.25009h0.96463v-2.25009h0.64382v2.57087h-0.32304v0.32082zM233.40531,180.94876v-1.60846h-0.96461v1.60846zM231.79907,182.87579v-4.17712h1.92707v0.32081h0.323v2.25006h-0.323v0.32082h-1.28542v1.28542zM235.9762,179.98412v-0.64382h-0.96464v0.64382zM234.69078,181.59036v-0.32082h-0.32082v-2.25006h0.32082v-0.32081h1.60625v0.32081h0.323v1.60844h-1.60846v0.32083h1.60846v0.64161zM238.54709,180.94876v-1.60846h-0.96464v1.60846zM237.26164,181.59036v-0.32082h-0.32079v-2.25006h0.32079v-0.32081h1.28546v-1.28544h0.64382v4.17713zM241.72224,181.59036v-0.32082h-0.32082v-3.53549h0.32082v-0.32081h1.60625v0.32081h0.323v0.64382h-0.64382v-0.32301h-0.96464v2.8939h0.96464v-0.32083h0.64382v0.64161h-0.323v0.32082zM245.57856,180.94876v-0.64383h-0.96464v0.64383zM244.2931,181.59036v-0.32082h-0.32079v-1.28542h0.32079v-0.32081h1.28546v-0.32301h-1.60625v-0.64163h1.92703v0.32081h0.32304v1.92927h0.32079v0.64161zM246.86398,181.59036v-2.57088h0.32082v-0.32081h1.60625v0.32081h0.323v0.64382h-0.64382v-0.32301h-0.96461v2.25007zM251.04112,180.94876v-1.60846h-0.96464v1.60846zM249.75569,181.59036v-0.32082h-0.32082v-2.25006h0.32082v-0.32081h1.28542v-1.28544h0.64382v4.17713zM252.00576,181.59036v-0.64161h0.64161v0.64161zM252.00576,180.62793v-3.21469h0.64161v3.21469z"/></g></g></svg>