<svg version="1.1" xmlns="http://www.w3.org/2000/svg" xmlns:xlink="http://www.w3.org/1999/xlink" width="50.5547" height="14.567" viewBox="0,0,50.5547,14.567"><g transform="translate(-214.72265,-172.7165)"><g data-paper-data="{&quot;isPaintingLayer&quot;:true}" fill="#ff0000" fill-rule="nonzero" stroke="none" stroke-width="1" stroke-linecap="butt" stroke-linejoin="miter" stroke-miterlimit="10" stroke-dasharray="" stroke-dashoffset="0" style="mix-blend-mode: normal"><path d="M215.57812,183.8555v-0.855h-0.85547v-1.711h1.71094v0.855h2.57226v-3.428h-3.42773v-0.861h-0.85547v-4.283h0.85547v-0.856h4.2832v0.856h0.86133v1.717h-1.7168v-0.862h-2.57226v2.573h3.42773v0.855h0.86133v5.145h-0.86133v0.855zM224.14453,183.8555v-0.855h-0.85547v-5.145h-1.71094v-1.711h1.71094v-3.428h1.71679v3.428h2.5723v1.711h-2.5723v4.289h2.5723v1.711zM228.43355,183.8555v-6.855h0.8555v-0.856h4.2832v0.856h0.8613v1.716h-1.7168v-0.861h-2.5722v6zM239.57225,182.1445v-1.717h-2.5723v1.717zM236.14455,183.8555v-0.855h-0.8555v-3.428h0.8555v-0.856h3.4277v-0.861h-4.2832v-1.711h5.1387v0.856h0.8613v5.144h0.8555v1.711zM242.99995,183.8555v-7.711h1.711v7.711zM242.99995,174.4275v-1.711h1.711v1.711zM249.84965,182.1445v-4.289h-2.5723v4.289zM245.56645,187.2835v-1.717h4.2832v-1.711h-3.4278v-0.855h-0.8554v-6h0.8554v-0.856h4.2832v0.856h0.8614v9.421h-0.8614v0.862zM252.42185,183.8555v-11.139h1.711v3.428h3.4277v0.856h0.8613v6.855h-1.7168v-6h-2.5722v6zM261.84375,183.8555v-0.855h-0.8555v-5.145h-1.7109v-1.711h1.7109v-3.428h1.7168v3.428h2.5723v1.711h-2.5723v4.289h2.5723v1.711z"/></g></g></svg>