<svg version="1.1" xmlns="http://www.w3.org/2000/svg" xmlns:xlink="http://www.w3.org/1999/xlink" width="116" height="24.83334" viewBox="0,0,116,24.83334"><g transform="translate(-231.21401,-168.03409)"><g data-paper-data="{&quot;isPaintingLayer&quot;:true}" fill-rule="nonzero" stroke="none" stroke-linecap="butt" stroke-linejoin="miter" stroke-miterlimit="10" stroke-dasharray="" stroke-dashoffset="0" style="mix-blend-mode: normal"><path d="M258.4336,185.56935v-11.1387h1.71094v4.2832h2.57226v-4.2832h1.7168v11.1387h-1.7168v-5.1387h-2.57226v5.1387zM269.5723,181.28615v-1.7168h-2.57229v1.7168zM266.14454,185.56935v-0.8555h-0.85547v-6h0.85547v-0.8554h4.28316v0.8554h0.8614v4.2891h-4.28909v0.8555h4.28909v1.7109zM276.4277,183.85845v-1.7168h-2.5722v1.7168zM273,185.56935v-0.8555h-0.8555v-3.4277h0.8555v-0.8555h3.4277v-0.8613h-4.2832v-1.7109h5.1387v0.8554h0.8613v5.1446h0.8555v1.7109zM279.8555,185.56935v-6.8555h0.8554v-0.8554h4.2832v0.8554h0.8614v1.7168h-1.7168v-0.8613h-2.5723v6zM289.2774,185.56935v-0.8555h-0.8555v-5.1445h-1.711v-1.7109h1.711v-3.4278h1.7168v3.4278h2.5722v1.7109h-2.5722v4.2891h2.5722v1.7109zM293.5664,185.56935v-1.7109h4.2832v-1.7168h-3.4277v-0.8555h-0.8555v-2.5723h0.8555v-0.8554h5.1445v1.7109h-4.289v0.8613h3.4277v0.8555h0.8613v3.4277h-0.8613v0.8555z" fill="#f03464" stroke-width="1"/><path d="M244.35545,183.85844v-4.2891h-2.57226v4.2891zM240.92772,185.56934v-0.8555h-0.85547v-5.99997h0.85547v-0.85547h4.2832v0.85547h0.86133v5.99997h-0.86133v0.8555zM248.63866,185.56934v-6h-1.71094v-1.71094h1.71094v-2.57226h0.85547v-0.85547h3.43362v1.71094h-2.5723v1.71679h2.5723v1.71094h-2.5723v6z" fill="#000000" stroke-width="1"/><path d="M231.21402,192.86743v-24.83334h116v24.83334z" fill="none" stroke-width="0"/></g></g></svg>