<svg version="1.1" xmlns="http://www.w3.org/2000/svg" xmlns:xlink="http://www.w3.org/1999/xlink" width="19.89677" height="9.19975" viewBox="0,0,19.89677,9.19975"><g transform="translate(-230.05161,-175.40012)"><g data-paper-data="{&quot;isPaintingLayer&quot;:true}" fill="#ff0000" fill-rule="nonzero" stroke="none" stroke-width="1" stroke-linecap="butt" stroke-linejoin="miter" stroke-miterlimit="10" stroke-dasharray="" stroke-dashoffset="0" style="mix-blend-mode: normal"><path d="M230.36198,179.44113v-0.31037h-0.31036v-3.73063h0.62071v3.4203h0.93319v-3.4203h0.62284v3.73063h-0.31248v0.31037zM234.09263,178.82044v-1.55604h-0.9332v1.55604zM232.53872,180.68467v-4.04098h1.86424v0.31036h0.31251v2.17673h-0.31251v0.31037h-1.24353v1.24353zM236.5797,178.82044v-1.55604h-0.93317v1.55604zM235.0258,180.68467v-0.62284h1.5539v-0.6207h-1.24353v-0.31037h-0.31037v-2.17673h0.31037v-0.31036h1.5539v0.31036h0.31247v3.41816h-0.31247v0.31247zM237.5129,179.44113v-2.48709h0.31037v-0.31036h1.5539v0.31036h0.31247v0.62284h-0.62284v-0.31248h-0.9332v2.17674zM241.55391,178.82044v-0.62285h-0.9332v0.62285zM240.31034,179.44113v-0.31037h-0.31033v-1.24353h0.31033v-0.31036h1.24357v-0.31248h-1.5539v-0.62071h1.86423v0.31036h0.31251v1.8664h0.31033v0.6207zM244.35134,178.82044v-1.55604h-0.93317v1.55604zM243.10781,179.44113v-0.31037h-0.31037v-2.17673h0.31037v-0.31036h1.24353v-1.24355h0.62284v4.04099zM246.83845,177.88723v-0.62284h-0.9332v0.62284zM245.59491,179.44113v-0.31037h-0.31037v-2.17673h0.31037v-0.31036h1.5539v0.31036h0.31247v1.55603h-1.55604v0.31037h1.55604v0.6207zM249.32555,178.82044v-1.55604h-0.9332v1.55604zM248.08198,179.44113v-0.31037h-0.31033v-2.17673h0.31033v-0.31036h1.24357v-1.24355h0.62284v4.04099zM234.07097,184.59987v-4.04099h0.6207v1.24355h1.24357v0.31036h0.31247v2.48709h-0.62284v-2.17674h-0.9332v2.17674zM238.11198,183.97918v-0.62285h-0.9332v0.62285zM236.86841,184.59987v-0.31037h-0.31033v-1.24353h0.31033v-0.31036h1.24357v-0.31248h-1.5539v-0.62071h1.86423v0.31036h0.31251v1.8664h0.31033v0.6207zM239.35551,184.59987v-2.48709h0.31037v-0.31036h1.5539v0.31036h0.31247v2.48709h-0.62284v-2.17674h-0.9332v2.17674zM243.39652,183.97918v-1.55604h-0.9332v1.55604zM242.15294,184.59987v-0.31037h-0.31033v-2.17673h0.31033v-0.31036h1.24357v-1.24355h0.62284v4.04099zM244.32968,184.59987v-0.6207h0.62073v0.6207zM244.32968,183.66881v-3.10993h0.62073v3.10993z"/></g></g></svg>