<svg version="1.1" xmlns="http://www.w3.org/2000/svg" xmlns:xlink="http://www.w3.org/1999/xlink" width="23.1328" height="11.139" viewBox="0,0,23.1328,11.139"><g transform="translate(-228.4336,-174.4305)"><g data-paper-data="{&quot;isPaintingLayer&quot;:true}" fill="#ff0000" fill-rule="nonzero" stroke="none" stroke-width="1" stroke-linecap="butt" stroke-linejoin="miter" stroke-miterlimit="10" stroke-dasharray="" stroke-dashoffset="0" style="mix-blend-mode: normal"><path d="M232.7168,178.7145v-2.573h-2.57226v2.573zM228.4336,185.5695v-11.139h5.13867v0.856h0.86133v4.283h-0.86133v0.861h-3.42773v5.139zM239.5723,183.8585v-1.717h-2.57229v1.717zM236.14454,185.5695v-0.855h-0.85547v-3.428h0.85547v-0.856h3.42776v-0.861h-4.28323v-1.711h5.13863v0.856h0.8614v5.144h0.8554v1.711zM243,185.5695v-7.711h1.7109v7.711zM243,176.1415v-1.711h1.7109v1.711zM245.5664,185.5695v-6.855h0.8555v-0.856h4.2832v0.856h0.8613v1.716h-1.7168v-0.861h-2.5722v6z"/></g></g></svg>