<svg version="1.1" xmlns="http://www.w3.org/2000/svg" xmlns:xlink="http://www.w3.org/1999/xlink" width="51.3047" height="11.139" viewBox="0,0,51.3047,11.139"><g transform="translate(-214.34765,-174.4305)"><g data-paper-data="{&quot;isPaintingLayer&quot;:true}" fill="#ff0000" fill-rule="nonzero" stroke="none" stroke-width="1" stroke-linecap="butt" stroke-linejoin="miter" stroke-miterlimit="10" stroke-dasharray="" stroke-dashoffset="0" style="mix-blend-mode: normal"><path d="M216.91406,185.5695v-9.428h-2.56641v-1.711h6.85547v1.711h-2.57227v9.428zM222.91406,185.5695v-0.855h-0.85547v-6.856h1.71094v6h0.85542v-1.717h0.8614v-0.855h0.8554v0.855h0.8555v1.717h0.8613v-6h1.711v6.856h-0.8555v0.855h-2.5723v-0.855h-0.8554v0.855zM234.90815,183.8585v-4.289h-2.5722v4.289zM231.48045,185.5695v-0.855h-0.8555v-6h0.8555v-0.856h4.2832v0.856h0.8613v6h-0.8613v0.855zM246.80275,178.7145v-2.573h-2.5723v2.573zM242.51955,185.5695v-11.139h5.1386v0.856h0.8614v4.283h-0.8614v0.861h-3.4277v5.139zM253.65815,183.8585v-1.717h-2.5722v1.717zM250.23045,185.5695v-0.855h-0.8555v-3.428h0.8555v-0.856h3.4277v-0.861h-4.2832v-1.711h5.1387v0.856h0.8613v5.144h0.8555v1.711zM257.08595,185.5695v-7.711h1.7109v7.711zM257.08595,176.1415v-1.711h1.7109v1.711zM259.65235,185.5695v-6.855h0.8555v-0.856h4.2832v0.856h0.8613v1.716h-1.7168v-0.861h-2.5723v6z"/></g></g></svg>