<svg version="1.1" xmlns="http://www.w3.org/2000/svg" xmlns:xlink="http://www.w3.org/1999/xlink" width="57.3047" height="11.13867" viewBox="0,0,57.3047,11.13867"><g transform="translate(-211.34765,-174.43067)"><g data-paper-data="{&quot;isPaintingLayer&quot;:true}" fill="#ff0000" fill-rule="nonzero" stroke="none" stroke-width="1" stroke-linecap="butt" stroke-linejoin="miter" stroke-miterlimit="10" stroke-dasharray="" stroke-dashoffset="0" style="mix-blend-mode: normal"><path d="M211.34765,185.56934v-11.13867h6v1.71094h-4.28906v2.57226h3.42773v1.7168h-3.42773v5.13867zM218.20312,185.56934v-11.13867h1.71094v11.13867zM221.62495,185.56934v-0.8555h-0.85542v-6.85544h1.71092v6.00004h2.5723v-6.00004h1.7168v6.85544h-0.8614v0.8555zM227.62495,185.56934v-1.7109h4.2832v-1.71683h-3.4277v-0.85547h-0.8555v-2.57227h0.8555v-0.85547h5.1445v1.71094h-4.289v0.86133h3.4277v0.85547h0.8613v3.4277h-0.8613v0.8555zM234.48045,185.56934v-11.13867h1.711v3.42773h3.4277v0.85547h0.8613v6.85547h-1.7168v-6h-2.5722v6zM246.37495,185.56934v-11.13867h6v1.71094h-4.289v2.57226h3.4277v1.7168h-3.4277v5.13867zM253.23045,185.56934v-7.71094h1.711v7.71094zM253.23045,176.14161v-1.71094h1.711v1.71094zM257.50785,185.56934v-0.8555h-0.8555v-3.4277h-0.8555v-3.42774h1.711v3.42774h0.8554v2.5723h0.8614v-2.5723h0.8554v-3.42774h1.7168v3.42774h-0.8613v3.4277h-0.8555v0.8555zM266.93555,181.28614v-1.7168h-2.5723v1.7168zM263.50785,185.56934v-0.8555h-0.8555v-5.99997h0.8555v-0.85547h4.2832v0.85547h0.8613v4.28906h-4.2891v0.85551h4.2891v1.7109z"/></g></g></svg>