<svg version="1.1" xmlns="http://www.w3.org/2000/svg" xmlns:xlink="http://www.w3.org/1999/xlink" width="74.35484" height="35.96774" viewBox="0,0,74.35484,35.96774"><g transform="translate(-202.75757,-161.77752)"><g stroke="none" stroke-miterlimit="10"><path d="M266.66271,169.37597h1.59971v1.59977h0.53328v20.26361h-0.53328v1.59983h-1.59971v0.53316h-53.32539v-0.53316h-1.59977v-1.59983h-0.53325v-20.26361h0.53325v-1.59977h1.59977v-0.53325h53.32539z" fill-opacity="0.75" fill="#071416" fill-rule="evenodd" stroke-width="1"/><path d="M267.68817,167.18143h1.66129v1.66129h0.55376v21.04301h-0.55376v1.66129h-1.66129v0.55376h-55.37634v-0.55376h-1.66129v-1.66129h-0.55376v-21.04301h0.55376v-1.66129h1.66129v-0.55376h55.37634z" fill="#008ffd" fill-rule="evenodd" stroke-width="1"/><path d="M230.66277,178.0209v-2.37404h-2.37398v2.37404zM226.70968,184.34809v-10.28032h4.74265v0.78955h0.79499v3.95314h-0.79499v0.79499h-3.16354v4.74265zM233.03687,184.34809v-10.28032h1.57911v8.7012h3.16354v1.57911zM242.5276,178.0209v-2.37404h-2.37399v2.37404zM238.5745,184.34809v-9.49077h0.78955v-0.78955h3.9531v0.78955h0.79498v9.49077h-1.58454v-4.74265h-2.37399v4.74265zM247.27036,184.34809v-4.74265h-0.78956v-0.79499h-0.78955v-0.78955h-0.78955v-3.95313h1.57911v3.16357h0.78956v0.78955h1.58443v-0.78955h0.78955v-3.16357h1.58454v3.95313h-0.78956v0.78955h-0.79498v0.79499h-0.78955v4.74265z" fill="#ffffff" fill-rule="nonzero" stroke-width="1"/><path d="M202.75757,197.74527v-35.96774h74.35484v35.96774z" fill="none" fill-rule="nonzero" stroke-width="0"/></g></g></svg>