<svg version="1.1" xmlns="http://www.w3.org/2000/svg" xmlns:xlink="http://www.w3.org/1999/xlink" width="55.5938" height="14.567" viewBox="0,0,55.5938,14.567"><g transform="translate(-212.2031,-172.7165)"><g data-paper-data="{&quot;isPaintingLayer&quot;:true}" fill="#ff0000" fill-rule="nonzero" stroke="none" stroke-width="1" stroke-linecap="butt" stroke-linejoin="miter" stroke-miterlimit="10" stroke-dasharray="" stroke-dashoffset="0" style="mix-blend-mode: normal"><path d="M212.2031,183.8555v-11.139h1.71094v4.284h2.57226v-4.284h1.7168v11.139h-1.7168v-5.139h-2.57226v5.139zM219.05857,183.8555v-7.711h1.71094v7.711zM219.05857,174.4275v-1.711h1.71094v1.711zM225.9082,182.1445v-4.289h-2.5723v4.289zM221.62498,187.2835v-1.717h4.28322v-1.711h-3.4278v-0.855h-0.85542v-6h0.85542v-0.856h4.2832v0.856h0.8614v9.421h-0.8614v0.862zM228.4804,183.8555v-11.139h1.711v3.428h3.4277v0.856h0.8613v6.855h-1.7168v-6h-2.5722v6zM241.2304,183.8555v-0.855h-0.8554v-9.428h0.8554v-0.856h4.2832v0.856h0.8614v1.717h-1.7168v-0.862h-2.5723v7.717h2.5723v-0.855h1.7168v1.711h-0.8614v0.855zM251.5136,182.1445v-1.717h-2.5722v1.717zM248.0859,183.8555v-0.855h-0.8555v-3.428h0.8555v-0.856h3.4277v-0.861h-4.2832v-1.711h5.1387v0.856h0.8613v5.144h0.8555v1.711zM254.9414,183.8555v-6.855h0.8555v-0.856h4.2832v0.856h0.8613v1.716h-1.7168v-0.861h-2.5723v6zM266.0801,182.1445v-4.289h-2.5723v4.289zM262.6523,183.8555v-0.855h-0.8554v-6h0.8554v-0.856h3.4278v-3.428h1.7168v11.139z"/></g></g></svg>