<svg version="1.1" xmlns="http://www.w3.org/2000/svg" xmlns:xlink="http://www.w3.org/1999/xlink" width="116" height="24.83333" viewBox="0,0,116,24.83333"><g transform="translate(-231.21401,-168.03409)"><g data-paper-data="{&quot;isPaintingLayer&quot;:true}" fill-rule="nonzero" stroke="none" stroke-linecap="butt" stroke-linejoin="miter" stroke-miterlimit="10" stroke-dasharray="" stroke-dashoffset="0" style="mix-blend-mode: normal"><path d="M264.95574,185.52217v-0.8555h-0.85547v-1.7109h1.71094v0.8555h2.57226v-3.4278h-3.42773v-0.8613h-0.85547v-4.2832h0.85547v-0.8555h4.2832v0.8555h0.86133v1.7168h-1.7168v-0.8613h-2.57226v2.5722h3.42773v0.8555h0.86133v5.1445h-0.86133v0.8555zM275.23897,183.81128v-4.2891h-2.57229v4.2891zM270.95574,188.94988v-11.1386h5.13863v0.8554h0.8614v6h-0.8614v0.8555h-3.42769v3.4277zM282.09437,183.81128v-1.7168h-2.5722v1.7168zM278.66667,185.52217v-0.8555h-0.8555v-3.4277h0.8555v-0.8555h3.4277v-0.8613h-4.2832v-1.7109h5.1387v0.8554h0.8613v5.1446h0.8555v1.7109zM289.80537,183.81128v-4.2891h-2.5723v4.2891zM286.37757,185.52217v-0.8555h-0.8554v-6h0.8554v-0.8554h3.4278v-3.4278h1.7168v11.1387zM296.66077,181.23898v-1.7168h-2.5722v1.7168zM293.23307,185.52217v-0.8555h-0.8555v-6h0.8555v-0.8554h4.2832v0.8554h0.8613v4.2891h-4.289v0.8555h4.289v1.7109zM299.23307,185.52217v-1.7109h4.2832v-1.7168h-3.4277v-0.8555h-0.8555v-2.5723h0.8555v-0.8554h5.1445v1.7109h-4.289v0.8613h3.4277v0.8555h0.8613v3.4277h-0.8613v0.8555z" fill="#3c4368" stroke-width="1"/><path d="M247.52212,183.85845v-4.2891h-2.57226v4.2891zM244.09439,185.56935v-0.8555h-0.85547v-5.99997h0.85547v-0.85547h4.2832v0.85547h0.86133v5.99997h-0.86133v0.8555zM251.80533,185.56935v-6h-1.71094v-1.71094h1.71094v-2.57226h0.85547v-0.85547h3.43362v1.71094h-2.5723v1.71679h2.5723v1.71094h-2.5723v6z" fill="#000000" stroke-width="1"/><path d="M231.21401,192.86742v-24.83333h116v24.83333z" fill="none" stroke-width="0"/></g></g></svg>