<svg version="1.1" xmlns="http://www.w3.org/2000/svg" xmlns:xlink="http://www.w3.org/1999/xlink" width="81.9492" height="11.1387" viewBox="0,0,81.9492,11.1387"><g transform="translate(-199.0254,-174.43065)"><g data-paper-data="{&quot;isPaintingLayer&quot;:true}" fill="#ff0000" fill-rule="nonzero" stroke="none" stroke-width="1" stroke-linecap="butt" stroke-linejoin="miter" stroke-miterlimit="10" stroke-dasharray="" stroke-dashoffset="0" style="mix-blend-mode: normal"><path d="M199.0254,185.56935v-11.1387h6v1.711h-4.28906v2.5722h3.42773v1.7168h-3.42773v5.1387zM205.88087,185.56935v-7.7109h1.71094v7.7109zM205.88087,176.14165v-1.711h1.71094v1.711zM210.1582,185.56935v-0.8555h-0.8555v-3.4277h-0.85542v-3.4277h1.71092v3.4277h0.8555v2.5723h0.8613v-2.5723h0.8555v-3.4277h1.7168v3.4277h-0.8614v3.4277h-0.8554v0.8555zM219.5859,181.28615v-1.7168h-2.5722v1.7168zM216.1582,185.56935v-0.8555h-0.8555v-6h0.8555v-0.8554h4.2832v0.8554h0.8613v4.2891h-4.289v0.8555h4.289v1.7109zM231.4805,183.85845v-4.2891h-2.5723v4.2891zM228.0527,185.56935v-0.8555h-0.8554v-6h0.8554v-0.8554h4.2832v0.8554h0.8614v6h-0.8614v0.8555zM235.7637,185.56935v-6h-1.711v-1.7109h1.711v-2.5723h0.8555v-0.8555h3.4335v1.711h-2.5722v1.7168h2.5722v1.7109h-2.5722v6zM250.2305,183.85845v-1.7168h-2.5723v1.7168zM246.8027,185.56935v-0.8555h-0.8554v-3.4277h0.8554v-0.8555h3.4278v-0.8613h-4.2832v-1.7109h5.1386v0.8554h0.8614v5.1446h0.8554v1.7109zM258.6973,185.56935v-11.1387h1.7109v3.4278h0.8555v-0.8555h0.8613v-0.8613h0.8555v-1.711h1.7168v2.5723h-0.8614v0.8555h-0.8554v0.8554h-0.8555v0.8555h0.8555v0.8613h0.8554v0.8555h0.8614v4.2832h-1.7168v-3.4277h-0.8555v-0.8555h-0.8613v-0.8555h-0.8555v5.1387zM265.5527,185.56935v-7.7109h1.711v7.7109zM265.5527,176.14165v-1.711h1.711v1.711zM268.1192,185.56935v-6.8555h0.8554v-0.8554h4.2832v0.8554h0.8614v6.8555h-1.7168v-6h-2.5723v6zM279.2578,183.85845v-4.2891h-2.5722v4.2891zM275.8301,185.56935v-0.8555h-0.8555v-6h0.8555v-0.8554h3.4277v-3.4278h1.7168v11.1387z"/></g></g></svg>