<svg version="1.1" xmlns="http://www.w3.org/2000/svg" xmlns:xlink="http://www.w3.org/1999/xlink" width="29.1328" height="11.139" viewBox="0,0,29.1328,11.139"><g transform="translate(-225.4336,-174.4305)"><g data-paper-data="{&quot;isPaintingLayer&quot;:true}" fill="#ff0000" fill-rule="nonzero" stroke="none" stroke-width="1" stroke-linecap="butt" stroke-linejoin="miter" stroke-miterlimit="10" stroke-dasharray="" stroke-dashoffset="0" style="mix-blend-mode: normal"><path d="M225.4336,185.5695v-11.139h6v1.711h-4.28906v2.573h3.42773v1.716h-3.42773v5.139zM232.28907,185.5695v-11.139h1.71094v11.139zM235.7109,185.5695v-0.855h-0.85542v-6.856h1.71092v6h2.5723v-6h1.7168v6.856h-0.8614v0.855zM241.7109,185.5695v-1.711h4.2832v-1.717h-3.4277v-0.855h-0.8555v-2.572h0.8555v-0.856h5.1445v1.711h-4.289v0.861h3.4277v0.856h0.8613v3.428h-0.8613v0.855zM248.5664,185.5695v-11.139h1.711v3.428h3.4277v0.856h0.8613v6.855h-1.7168v-6h-2.5722v6z"/></g></g></svg>